# xmcd CD database file
#
# Track frame offsets:
#	150
#	13200
#	27075
#	42675
#	57975
#	71775
#	86625
#	100950
#	116175
#	131100
#	145875
#	161925
#	177300
#	190725
#	206250
#	218700
#	233025
#	247275
#
# Disc length: 3488 seconds
#
# Revision: 1
# Processed by: cddbd v1.5.1PL2 Copyright (c) Steve Scherf et al.
# Submitted via: freeDBTagger 0.8.2.1
#
DISCID=170d9e12
DTITLE=美空ひばり - オリジナル・ベスト50 [CD1]
DYEAR=1996
DGENRE=misc
TTITLE0=悲しき口笛
TTITLE1=東京キッド
TTITLE2=越後獅子の唄
TTITLE3=私は街の子
TTITLE4=ひばりの花売娘
TTITLE5=あの丘越えて
TTITLE6=リンゴ追分
TTITLE7=お祭りマンボ
TTITLE8=津軽のふるさと
TTITLE9=ひばりのマドロスさん
TTITLE10=日和下駄
TTITLE11=娘船頭さん
TTITLE12=あの日の船はもう来ない
TTITLE13=ひばりの三度笠
TTITLE14=素敵なランデブー
TTITLE15=ひばりのチャチャチャ
TTITLE16=港町十三番地
TTITLE17=浜っ子マドロス
EXTD=昭和24年9月
EXTT0=
EXTT1=
EXTT2=
EXTT3=
EXTT4=
EXTT5=
EXTT6=
EXTT7=
EXTT8=
EXTT9=
EXTT10=
EXTT11=
EXTT12=
EXTT13=
EXTT14=
EXTT15=
EXTT16=
EXTT17=
PLAYORDER=
